<svg width="408" height="83" viewBox="0 0 408 83" fill="none" xmlns="http://www.w3.org/2000/svg">
<path fill-rule="evenodd" clip-rule="evenodd" d="M171.323 26.8335C169.573 25.4141 167.822 23.9953 166.072 22.5769C165.17 21.8457 164.277 21.1057 163.383 20.3653C163.276 20.2758 163.166 20.1902 163.056 20.1048C162.71 19.8352 162.366 19.5674 162.101 19.1856C161.786 18.729 162.096 18.1714 162.323 17.7613C162.366 17.6835 162.406 17.611 162.439 17.5454C163.479 15.4428 164.555 13.359 165.65 11.285C166.2 10.2404 166.752 9.19575 167.303 8.15125L167.31 8.1395L167.314 8.1311L167.317 8.12606L167.318 8.12327L167.32 8.12048L167.321 8.11769L167.322 8.11489L168.354 6.16006C168.84 5.23901 168.665 4.86516 167.629 4.86516C162.989 4.86516 158.348 4.86356 153.708 4.86196C144.128 4.85866 134.548 4.85536 124.968 4.86613L124.77 4.86631C123.923 4.86703 122.765 4.86801 122.411 4.90342C122.236 4.92085 122.077 4.93877 122.077 5.16007C122.077 5.52201 122.075 5.86512 122.073 6.20418L122.073 6.20637C122.071 6.51436 122.07 6.81904 122.069 7.13148C122.069 7.49226 122.069 7.85351 122.07 8.21428C122.07 8.39637 122.084 8.52469 122.182 8.66997C122.325 8.88111 122.602 8.89224 122.762 8.89224C123.363 8.89224 123.94 8.89558 124.512 8.89888C125.073 8.90212 125.629 8.90532 126.195 8.90532C129.752 8.9058 133.31 8.9058 136.868 8.9058C143.975 8.90532 151.082 8.90532 158.19 8.9058C158.601 8.9058 158.796 9.00508 158.479 9.35907C157.93 9.97101 157.378 10.5797 156.826 11.1884L156.826 11.1885L156.826 11.1888L156.825 11.1891L156.825 11.19L156.824 11.1902L156.824 11.1903C155.267 12.9075 153.71 14.6243 152.227 16.4118C152.102 16.5614 151.972 16.6137 151.783 16.6137C146.467 16.6144 141.152 16.6142 135.836 16.6139L127.862 16.6137C126.984 16.6137 126.124 16.6175 125.265 16.6213H125.265H125.265H125.264H125.264H125.264H125.264H125.263C124.407 16.625 123.552 16.6287 122.682 16.6287C122.408 16.6287 122.075 16.6341 122.075 16.9624C122.075 17.3845 122.073 17.7827 122.072 18.1749V18.1776V18.1802V18.183V18.1859V18.1888V18.1919C122.071 18.5783 122.069 18.9592 122.069 19.3517C122.069 19.525 122.07 19.6991 122.07 19.8724V19.8745C122.071 20.0458 122.071 20.2165 122.071 20.3851C122.071 20.5386 122.184 20.6491 122.311 20.6491H124.6C126.594 20.6491 128.587 20.6504 130.58 20.6517H130.581H130.581H130.582H130.582H130.583H130.583H130.584C132.575 20.653 134.567 20.6544 136.558 20.6544H152.147C152.37 20.6544 152.557 20.7009 152.746 20.8306C155.389 22.6403 158.062 24.3958 160.796 26.0568C162.533 27.1124 163.396 27.1613 165.344 27.2204C166.931 27.2693 169.032 27.2713 171.264 27.2713C171.415 27.2713 171.652 27.265 171.586 27.1197C171.533 27.0001 171.448 26.9328 171.358 26.8615L171.323 26.8335ZM113.846 13.5893L113.789 13.4789L113.788 13.4786L113.788 13.4783L113.788 13.4782L113.788 13.478L113.788 13.4779C112.819 11.6298 111.85 9.78307 110.802 7.97865C108.986 4.8516 108.315 4.85431 105.36 4.86621C105.155 4.86704 104.939 4.86791 104.711 4.86778C104.552 4.86778 104.37 4.8673 104.18 4.8668C103.518 4.86505 102.765 4.86306 102.598 4.88037C102.349 4.90555 102.496 5.5932 102.552 5.82225C103.126 8.17567 103.713 10.5252 104.301 12.8749L104.302 12.8787C104.594 14.0456 104.886 15.2125 105.176 16.38C105.214 16.5346 105.254 16.6891 105.293 16.8436L105.294 16.846C105.395 17.243 105.496 17.6407 105.582 18.042L105.582 18.0435C105.617 18.2027 105.648 18.3476 105.587 18.5137C105.365 19.1176 105.092 19.662 104.812 20.2206C104.743 20.3586 104.673 20.4974 104.604 20.6381C104.51 20.83 104.418 21.0252 104.325 21.2214C104.04 21.8271 103.75 22.442 103.378 22.9984C103.243 23.2003 103.074 23.204 102.885 23.2081C102.858 23.2087 102.83 23.2093 102.801 23.2105C102.092 23.2463 101.383 23.2404 100.674 23.2344H100.674C100.406 23.2321 100.137 23.2299 99.8694 23.2299C97.5221 23.2302 95.1746 23.2301 92.8271 23.23H92.796L89.2594 23.2299L85.7201 23.23H85.6889C83.3398 23.2301 80.9906 23.2302 78.6414 23.2299C78.3739 23.2299 78.1064 23.2321 77.8388 23.2344H77.8387C77.1311 23.2404 76.4234 23.2463 75.715 23.2105C75.6861 23.2091 75.6576 23.2084 75.6295 23.2077C75.4416 23.203 75.2731 23.1988 75.1384 22.9974C74.77 22.4435 74.4884 21.8458 74.2078 21.2502L74.2076 21.2497L74.2074 21.2492C74.114 21.051 74.0207 20.853 73.9244 20.657C73.8503 20.5062 73.7753 20.3567 73.7004 20.2074L73.7004 20.2073L73.7003 20.2071L73.7002 20.207L73.7001 20.2068C73.4226 19.6536 73.1471 19.1046 72.9302 18.5117C72.8703 18.3486 72.9008 18.2062 72.9344 18.0499L72.9368 18.0386C73.0266 17.6214 73.1318 17.2085 73.237 16.7953C73.2733 16.6526 73.3097 16.5099 73.3454 16.367C73.6246 15.2445 73.9051 14.1223 74.1856 13.0002L74.1876 12.9921L74.1898 12.9834L74.1921 12.9741L74.1946 12.9643C74.7901 10.582 75.3857 8.19981 75.9684 5.81402C76.0246 5.58448 76.1737 4.89732 75.9448 4.88086C75.7557 4.8669 74.8074 4.86735 74.095 4.86769L73.8031 4.86778C73.5752 4.86791 73.3594 4.86703 73.1546 4.86621C70.2044 4.85428 69.5334 4.85157 67.7191 7.97333C66.6594 9.79783 65.68 11.6659 64.6997 13.5359L64.6681 13.596C64.5522 13.8169 64.4356 14.0372 64.319 14.2574C63.7438 15.3436 63.1695 16.4284 62.6897 17.5674C62.182 18.7736 62.5582 19.248 63.1689 20.0181C63.2462 20.1156 63.3272 20.2177 63.4107 20.3267C64.7886 22.1287 66.2839 23.8184 67.7806 25.5096L67.7806 25.5097L67.7821 25.5114C67.9875 25.7435 68.1929 25.9756 68.3981 26.208C68.7119 26.563 69.1191 27.0003 69.6575 27.1214C70.3224 27.2715 70.7154 27.2715 71.3544 27.2715H71.3788C72.4134 27.2715 73.4525 27.2709 74.4923 27.2704C75.8804 27.2697 77.2696 27.269 78.6509 27.2695C81.302 27.271 83.9528 27.2708 86.6042 27.2706H86.6044H86.6045H86.6047H86.6049H86.6051H86.6053H86.6055L89.2594 27.2705C92.7959 27.2705 96.3324 27.2705 99.8689 27.2695C101.251 27.269 102.63 27.2697 104.009 27.2704C105.044 27.2709 106.079 27.2715 107.117 27.2715C107.769 27.2715 108.491 27.2695 108.981 27.117C109.433 26.977 109.812 26.5577 110.125 26.2018C110.324 25.9766 110.523 25.7518 110.722 25.5271L110.723 25.5257L110.724 25.5244L110.724 25.5243C112.228 23.8252 113.73 22.1284 115.114 20.3185C115.197 20.2102 115.277 20.1088 115.353 20.0121C115.966 19.2376 116.335 18.7704 115.824 17.5602C115.343 16.4167 114.766 15.3285 114.189 14.2388L114.189 14.2388L114.189 14.2387L114.187 14.2348C114.073 14.0198 113.96 13.8048 113.846 13.5893ZM54.2912 21.0994C54.4807 21.479 54.6702 21.8585 54.8575 22.2392C55.6389 23.8299 56.4207 25.4207 57.2035 27.012C57.2771 27.1612 57.2243 27.2658 57.0568 27.2658C55.7389 27.2648 54.422 27.2638 53.1046 27.2566L53.0247 27.2561C52.4011 27.2532 49.8458 27.241 49.4256 26.9369C48.8716 26.536 48.2941 25.9679 47.8529 25.4663C47.4122 24.9641 46.9729 24.4609 46.536 23.9559C45.6612 22.9452 44.7911 21.9312 43.9559 20.8852C43.7072 20.5743 43.4425 20.4731 43.0622 20.4677C40.3588 20.4326 37.6553 20.4345 34.9519 20.4364H34.9517C34.3405 20.4368 33.7293 20.4372 33.118 20.4372C32.5067 20.4372 31.8954 20.4368 31.2841 20.4364H31.2838H31.2838H31.2837H31.2837H31.2836H31.2835C28.58 20.4345 25.8768 20.4326 23.1743 20.4677C22.7935 20.4731 22.5279 20.5743 22.2806 20.8852C21.4445 21.9321 20.5744 22.9462 19.6992 23.9568C19.2622 24.4619 18.8234 24.9641 18.3832 25.4663C17.9415 25.9679 17.4376 26.5355 16.8874 26.9437C16.4825 27.2442 13.9049 27.2536 13.233 27.2561L13.1287 27.2566C11.8127 27.2638 10.4958 27.2648 9.17884 27.2658C9.01227 27.2658 8.95848 27.1621 9.03256 27.011L9.50188 26.0565C10.1282 24.7825 10.7545 23.5087 11.3805 22.2343C11.5636 21.8624 11.7489 21.4916 11.9341 21.1208L11.9342 21.1207L11.9343 21.1205L11.9343 21.1204C12.3413 20.3058 12.7484 19.4911 13.1329 18.6639C13.3133 18.2774 13.2143 17.9612 13.1114 17.6324C13.0831 17.5422 13.0546 17.4511 13.0315 17.3574C12.4682 15.0757 11.8998 12.7946 11.3314 10.5137L11.3313 10.5134L11.3313 10.5134L11.3312 10.5131C11.0388 9.33968 10.7464 8.16627 10.4547 6.99279C10.4138 6.82837 10.3712 6.66447 10.3286 6.5006L10.3286 6.5006C10.2191 6.07907 10.1097 5.65776 10.0282 5.22816C10.0253 5.21273 10.022 5.19693 10.0187 5.18099L10.0187 5.18099C9.98984 5.04185 9.95878 4.89196 10.148 4.8824C10.492 4.86497 10.7949 4.86497 11.1195 4.86497L11.6306 4.86472C12.1421 4.86436 12.6541 4.864 13.1655 4.8669C13.3078 4.86768 13.4451 4.86775 13.578 4.86782C15.4326 4.86875 16.4133 4.86924 17.6863 6.78747C18.7923 8.45816 21.8739 14.3356 22.7624 16.1235C22.8865 16.3733 23.0068 16.5361 23.3126 16.537C25.7964 16.5466 28.2799 16.5455 30.7638 16.5445H30.7639H30.7641H30.7642H30.7643H30.7644H30.7645C31.5489 16.5441 32.3335 16.5438 33.118 16.5438C33.9025 16.5438 34.6869 16.5441 35.4713 16.5445H35.472H35.472H35.472H35.472H35.4721H35.4721C37.9559 16.5455 40.4396 16.5466 42.923 16.537C43.2288 16.5361 43.3491 16.3733 43.4737 16.1235C44.3612 14.3375 47.4466 8.44993 48.5545 6.78214C49.8241 4.86885 50.8082 4.86848 52.6557 4.86779C52.7899 4.86774 52.9287 4.86769 53.0725 4.8669C53.5831 4.864 54.0946 4.86436 54.6059 4.86472L55.117 4.86497C55.4412 4.86497 55.7554 4.86497 56.0881 4.88337C56.2768 4.89377 56.2464 5.04064 56.2176 5.17967C56.2142 5.19602 56.2109 5.21226 56.2079 5.22816C56.126 5.65742 56.0167 6.0784 55.9075 6.49905L55.9075 6.49913L55.9075 6.49923C55.865 6.66268 55.8226 6.82607 55.7818 6.98989C55.4757 8.22171 55.1688 9.45335 54.8619 10.685L54.8605 10.6905C54.3069 12.9122 53.7533 15.1341 53.2041 17.3574C53.181 17.4512 53.1525 17.5424 53.1242 17.6327C53.0214 17.9611 52.9223 18.2776 53.1022 18.6639C53.4843 19.4834 53.8877 20.2914 54.2912 21.0994ZM398.924 13.2171C398.617 12.4008 397.926 11.5944 397.354 10.9263L397.349 10.9198L397.346 10.9165C397.263 10.82 397.183 10.7263 397.107 10.636C396.025 9.34881 394.969 8.13865 393.875 6.89023C393.746 6.74302 393.618 6.59483 393.49 6.44665L393.488 6.44385L393.487 6.44344L393.487 6.4432L393.487 6.44307L393.487 6.443V6.44295C393.165 6.06936 392.842 5.69586 392.502 5.33819C392.343 5.17015 392.173 5.07233 391.949 5.00986C391.43 4.86507 390.691 4.86507 389.74 4.86507C388.922 4.86507 388.105 4.86555 387.288 4.86603C386.471 4.86652 385.654 4.867 384.836 4.867L384.822 4.867C384.651 4.86695 384.46 4.8669 384.399 4.9377C384.327 5.02051 384.392 5.25247 384.49 5.44908C384.979 6.4336 385.463 7.42119 385.946 8.40852C386.206 8.93882 386.466 9.46905 386.726 9.99868C386.96 10.4739 387.192 10.9312 387.423 11.3886C387.649 11.8344 387.875 12.2805 388.103 12.7435C388.15 12.8378 388.195 12.9228 388.237 13.0022C388.455 13.415 388.591 13.6729 388.448 14.2839C388.356 14.6679 388.261 15.0503 388.165 15.4332L388.164 15.4367C388.133 15.5614 388.101 15.6863 388.07 15.8112L387.713 17.2483C387.326 18.8048 386.939 20.361 386.551 21.9177C386.534 21.9894 386.486 22.0281 386.433 22.0441C386.406 22.0519 386.336 22.0611 386.275 22.0233C377.33 16.3627 368.385 10.7026 359.44 5.04253L359.404 5.01954C359.241 4.91688 359.082 4.86797 358.889 4.86797L358.661 4.86796C356.507 4.86787 353.648 4.86774 352.889 4.94255C352.856 4.94571 352.824 4.94863 352.792 4.95152L352.792 4.95153L352.792 4.95158C352.464 4.98136 352.167 5.00836 351.894 5.27572C351.402 5.75725 350.959 6.28275 350.516 6.80837L350.515 6.81021L350.514 6.81127L350.513 6.81188L350.513 6.81219L350.513 6.81231C350.33 7.02963 350.147 7.24695 349.96 7.46117C349.03 8.52896 348.103 9.60014 347.204 10.6965L347.164 10.7447C346.678 11.3386 346.193 11.9308 345.764 12.5744L345.716 12.6465C345.53 12.9243 345.355 13.1847 345.334 13.5575C345.314 13.9256 345.444 14.2203 345.579 14.5269L345.6 14.575L345.623 14.6263L345.635 14.6534C345.96 15.4067 346.332 16.1328 346.705 16.8588L346.705 16.8595L346.781 17.0078C347.879 19.1516 349.004 21.278 350.181 23.3782C350.777 24.4412 351.668 25.8649 352.666 26.7855C353.183 27.2623 354.294 27.2622 355.416 27.262L355.479 27.262C355.881 27.262 356.283 27.2634 356.685 27.2649C357.087 27.2663 357.489 27.2678 357.892 27.2678L358.009 27.2678C358.425 27.2681 358.791 27.2683 358.864 27.2378C359.075 27.1482 358.982 26.7628 358.948 26.6228L358.946 26.6121C358.782 25.9124 358.607 25.2158 358.431 24.5191C358.361 24.2405 358.291 23.9618 358.222 23.6828C357.639 21.3385 357.056 18.9928 356.472 16.6485C356.409 16.3933 356.343 16.1387 356.277 15.8841L356.277 15.8838L356.277 15.8835L356.277 15.8833L356.277 15.8831L356.277 15.8829C356.121 15.2784 355.965 14.674 355.838 14.0616C355.79 13.8335 355.821 13.6456 355.919 13.4379C356.298 12.6358 356.693 11.8418 357.088 11.0478L357.088 11.0477L357.088 11.0475C357.274 10.6728 357.461 10.2982 357.645 9.92265C357.711 9.79045 357.8 9.835 357.898 9.89747L385.179 27.1593C385.303 27.2378 385.426 27.2712 385.569 27.2712C389.698 27.2712 389.762 27.2712 390.476 27.1758C391.131 27.0886 391.584 26.9041 392.075 26.4218C392.832 25.6789 393.368 24.7569 393.882 23.8581C395.539 20.9584 397.145 18.0412 398.546 14.9977L398.585 14.9136C398.735 14.5873 398.884 14.2653 398.965 13.9071C399.02 13.665 399.012 13.451 398.924 13.2171ZM341.071 4.86501H345.016C346.024 4.86501 346.674 4.86501 346.389 5.48728C346.104 6.10907 344.884 7.35312 343.661 8.59524C342.438 9.83785 341.212 11.0775 340.543 11.6959C339.875 12.3143 339.764 12.31 339.378 11.6897C338.992 11.0688 338.332 9.83301 337.681 8.61316C337.029 7.39428 336.388 6.19236 336.101 5.57154C335.816 4.94975 335.886 4.90811 336.807 4.88631C337.728 4.86501 339.501 4.86501 341.071 4.86501ZM279.501 23.4394C279.413 23.3271 279.313 23.284 279.18 23.2685C278.845 23.2302 278.492 23.2302 278.146 23.2302C274.28 23.2302 270.747 23.2295 267.292 23.2287H267.288H267.283H267.278C263.968 23.228 260.73 23.2273 257.339 23.2273C256.655 23.2273 255.906 23.23 255.156 23.2327H255.156H255.156C253.295 23.2393 251.43 23.246 250.532 23.2118C249.997 23.192 249.612 23.1179 249.166 22.7692C248.213 22.0249 246.07 20.3247 245.201 19.468C244.923 19.1925 244.71 18.9513 244.865 18.5305C245.082 17.9415 245.387 17.3456 245.685 16.765L245.685 16.7648L245.76 16.6167C245.958 16.2296 246.2 15.7467 246.466 15.2146L246.466 15.2145C247.316 13.5144 248.417 11.3121 249.149 10.1252L249.174 10.0853C249.483 9.58487 249.766 9.12554 250.401 9.04534C251.516 8.9049 253.006 8.9049 254.095 8.9049H272.373C272.966 8.9049 273.558 8.90554 274.151 8.90617C275.428 8.90753 276.704 8.9089 277.982 8.90393C278.287 8.902 278.89 8.89086 279.033 8.81532C279.282 8.68326 279.434 8.45635 279.609 8.19433L279.609 8.19423L279.609 8.19414L279.61 8.19406L279.625 8.17028C279.936 7.7054 281.029 5.84294 281.289 5.39985C281.353 5.29089 281.512 4.99888 281.394 4.91898C281.314 4.86411 281.01 4.86472 280.791 4.86515L280.736 4.86523L280.014 4.86546C279.605 4.86567 279.241 4.86585 278.829 4.86523C276.664 4.86394 274.498 4.86437 272.332 4.8648C271.249 4.86501 270.166 4.86523 269.082 4.86523H251.41C250.679 4.86523 249.946 4.86838 249.214 4.87153C248.483 4.87468 247.753 4.87782 247.025 4.87782L246.962 4.87779C246.435 4.87747 245.881 4.87713 245.417 5.07782C245.085 5.22116 244.604 5.73156 244.245 6.11994C243.663 6.75229 243.09 7.39296 242.518 8.03394C242.297 8.28143 242.076 8.52897 241.854 8.77609C241.3 9.39332 240.745 10.0085 240.189 10.6238L240.187 10.626L240.183 10.6302C238.593 12.3905 237.002 14.1509 235.461 15.9586C234.882 16.6366 234.353 17.3048 233.871 18.0976C233.602 18.5397 233.565 18.9213 233.879 19.3871C234.216 19.8869 234.669 20.1951 235.133 20.5102C235.212 20.5642 235.292 20.6184 235.371 20.6738C236.131 21.2035 236.908 21.7072 237.685 22.2109L238.023 22.4297C239.302 23.2607 240.581 24.0917 241.862 24.9208C242.05 25.0423 242.236 25.1656 242.423 25.2888C243.159 25.7756 243.894 26.2611 244.702 26.636C245.827 27.1561 246.913 27.2713 248.091 27.2713C250.546 27.2713 252.671 27.2703 254.72 27.2693H254.724H254.729H254.733C256.644 27.2684 258.489 27.2675 260.473 27.2675C261.874 27.2675 263.275 27.2677 264.676 27.2679H264.682H264.682C268.417 27.2685 272.151 27.2691 275.887 27.2655C276.757 27.2645 277.615 27.2663 278.479 27.2683L278.481 27.2683C279.18 27.2698 279.884 27.2713 280.603 27.2713C280.821 27.2713 281.272 27.2713 281.403 27.1997C281.512 27.14 281.443 27.0005 281.402 26.9175L281.391 26.8936C280.987 26.0384 279.808 23.8351 279.501 23.4394ZM215.765 16.5958C216.308 16.5961 217.09 16.5965 217.211 16.5085C217.425 16.354 217.371 16.1274 217.325 15.9637C217.226 15.6092 217.127 15.255 217.027 14.9009C216.919 14.5138 216.81 14.1269 216.702 13.74C216.555 13.2142 216.425 12.7209 216.295 12.2268L216.295 12.2261L216.295 12.2257C216.17 11.7518 216.045 11.2773 215.904 10.773C215.877 10.6748 215.851 10.5733 215.824 10.4697L215.824 10.4693L215.824 10.4691C215.713 10.0439 215.593 9.58255 215.372 9.16183C215.315 9.0548 215.227 9.01122 215.115 8.9812C214.911 8.92502 214.707 8.92018 214.5 8.92018C213.649 8.92018 213.002 8.91594 212.395 8.91196C211.861 8.90846 211.359 8.90517 210.778 8.90517H201.462C198.357 8.90517 195.251 8.90517 192.145 8.90614C191.516 8.90565 190.909 8.90926 190.291 8.91295C189.69 8.91653 189.078 8.92018 188.424 8.92018C188.217 8.92018 188.013 8.92502 187.809 8.9812C187.698 9.01219 187.61 9.05529 187.554 9.16279C187.313 9.62415 187.171 10.1456 187.048 10.5999C187.026 10.6787 187.005 10.7555 186.985 10.8296C186.841 11.3448 186.722 11.8154 186.604 12.2859C186.485 12.7574 186.366 13.2288 186.222 13.7448C186.124 14.0968 186.025 14.4486 185.926 14.8004L185.924 14.8079L185.922 14.815C185.814 15.1982 185.707 15.5814 185.6 15.9647C185.554 16.1293 185.525 16.3347 185.739 16.4886C185.871 16.5841 186.771 16.591 187.303 16.5951L187.378 16.5956L187.485 16.5966C188.747 16.6132 190.01 16.6131 191.271 16.613C191.563 16.6129 191.854 16.6129 192.145 16.6131C195.252 16.615 198.357 16.615 201.462 16.615L203.326 16.6151C205.812 16.6153 208.297 16.6154 210.783 16.6131C210.947 16.613 211.112 16.613 211.276 16.6129L211.657 16.613C212.919 16.6131 214.181 16.6132 215.443 16.5966C215.531 16.5956 215.642 16.5957 215.765 16.5958ZM224.418 10.5201L224.593 10.8446L224.754 11.1441L224.754 11.1445L224.755 11.1447C225.754 13.0004 226.753 14.8553 227.665 16.7603C227.715 16.8639 227.772 16.9727 227.833 17.0859C228.13 17.6461 228.485 18.3142 228.187 18.9966C228.004 19.4149 227.739 19.7622 227.471 20.1145L227.441 20.1538L227.38 20.2349C226.817 20.9772 226.222 21.6896 225.622 22.4005C224.7 23.4939 223.762 24.5704 222.819 25.644C222.431 26.0842 221.61 26.997 220.899 27.1486C220.325 27.2716 219.998 27.2716 219.441 27.2716C219.055 27.2716 218.683 27.2715 218.32 27.2714L217.721 27.2712C216.662 27.2707 215.661 27.2703 214.597 27.2716H213.736C213.673 27.2716 213.65 27.2716 213.618 27.243C213.541 27.1746 213.565 27.1263 213.592 27.0718L213.595 27.0653C214.08 26.0796 214.565 25.0941 215.05 24.1087L215.055 24.0972C215.538 23.1156 216.022 22.1339 216.504 21.152C216.72 20.7128 216.466 20.7048 216.12 20.6941C216.091 20.6931 216.061 20.6922 216.031 20.691C214.924 20.6483 205 20.6531 202.134 20.6544L201.463 20.6547L200.791 20.6544C197.923 20.6531 188.004 20.6483 186.894 20.691L186.867 20.6921L186.806 20.6941C186.459 20.7048 186.205 20.7127 186.421 21.152C187.391 23.1225 188.36 25.0939 189.33 27.0653L189.331 27.0677C189.359 27.124 189.386 27.1781 189.302 27.243C189.266 27.2716 189.238 27.2716 189.175 27.2716H188.277C186.657 27.2716 185.09 27.2677 183.471 27.2392L183.359 27.2373C182.867 27.2291 182.541 27.2237 182.024 27.1389C181.318 27.0231 180.51 26.1015 180.119 25.6559L180.105 25.6401C179.161 24.5675 178.222 23.4905 177.3 22.3971C176.701 21.6867 176.106 20.9743 175.543 20.231C175.511 20.1888 175.479 20.1467 175.447 20.1048C175.182 19.7562 174.919 19.4114 174.738 18.9956C174.441 18.3129 174.797 17.6426 175.095 17.0822C175.155 16.9688 175.213 16.86 175.262 16.7564C176.177 14.8464 177.179 12.9869 178.182 11.1264L178.332 10.8466L178.471 10.5883L178.471 10.5878L178.472 10.5874C179.091 9.43314 179.71 8.28055 180.404 7.16862L180.48 7.0457C180.886 6.39301 181.272 5.77366 181.966 5.34345C182.683 4.89842 183.401 4.86501 184.176 4.86501H218.748C219.521 4.86501 220.242 4.89842 220.96 5.34345C221.653 5.77376 222.039 6.3933 222.445 7.04574L222.521 7.16814C223.201 8.25758 223.809 9.38817 224.418 10.5198L224.418 10.5199L224.418 10.5201ZM328.943 16.5085C328.822 16.5965 328.039 16.5961 327.497 16.5958C327.374 16.5957 327.263 16.5956 327.175 16.5966C325.913 16.6132 324.65 16.6131 323.388 16.613C323.097 16.6129 322.806 16.6129 322.515 16.6131C320.029 16.6154 317.543 16.6153 315.058 16.6151L313.194 16.615C310.089 16.615 306.983 16.615 303.877 16.6131C303.585 16.6129 303.294 16.6129 303.003 16.613C301.741 16.6131 300.479 16.6132 299.217 16.5966C299.164 16.596 299.102 16.5956 299.035 16.5951C298.503 16.591 297.603 16.5841 297.471 16.4886C297.257 16.3347 297.286 16.1293 297.332 15.9647C297.433 15.6002 297.535 15.2359 297.638 14.8716C297.743 14.4961 297.849 14.1206 297.953 13.7448C298.098 13.2286 298.216 12.7571 298.335 12.2855C298.454 11.8151 298.573 11.3446 298.716 10.8296C298.736 10.7607 298.755 10.6895 298.775 10.6165L298.777 10.6064C298.901 10.1506 299.043 9.62636 299.285 9.16279C299.342 9.05529 299.429 9.01219 299.541 8.9812C299.745 8.92502 299.949 8.92018 300.155 8.92018C300.809 8.92018 301.421 8.91653 302.022 8.91295L302.022 8.91295C302.641 8.90926 303.247 8.90565 303.877 8.90614C306.982 8.90517 310.088 8.90517 313.194 8.90517H322.509C323.09 8.90517 323.592 8.90846 324.127 8.91196C324.733 8.91594 325.381 8.92018 326.231 8.92018C326.438 8.92018 326.642 8.92502 326.847 8.9812C326.958 9.01122 327.047 9.0548 327.103 9.16183C327.324 9.58279 327.445 10.0445 327.555 10.4698L327.556 10.4733C327.583 10.5756 327.609 10.6759 327.636 10.773C327.776 11.2747 327.9 11.747 328.024 12.2185L328.026 12.2261L328.027 12.2268C328.157 12.7208 328.286 13.2142 328.434 13.74C328.547 14.1461 328.661 14.5523 328.775 14.9586L328.78 14.9781L328.781 14.9791C328.873 15.3071 328.965 15.6353 329.057 15.9637C329.102 16.1274 329.156 16.354 328.943 16.5085ZM336.325 10.8446L336.151 10.5213C335.542 9.38917 334.933 8.25806 334.253 7.16814L334.178 7.04758C333.771 6.39445 333.386 5.77416 332.691 5.34345C331.974 4.89842 331.253 4.86501 330.479 4.86501H295.908C295.133 4.86501 294.415 4.89842 293.697 5.34345C293.003 5.77361 292.618 6.39285 292.212 7.04545L292.212 7.04564L292.136 7.16862C291.447 8.27247 290.832 9.4164 290.216 10.5622L290.216 10.5626L290.064 10.8466L289.922 11.1092C288.917 12.9754 287.911 14.8405 286.994 16.7564C286.944 16.8597 286.887 16.9682 286.827 17.0812C286.529 17.6418 286.172 18.3125 286.47 18.9956C286.65 19.4115 286.913 19.7563 287.179 20.1048L287.186 20.1136C287.216 20.1526 287.245 20.1917 287.275 20.231C287.837 20.9743 288.433 21.6867 289.032 22.3971C289.953 23.4905 290.892 24.5675 291.836 25.6401L291.848 25.6529C292.237 26.0974 293.048 27.0229 293.755 27.1389C294.272 27.2237 294.599 27.2291 295.091 27.2373L295.203 27.2392C296.822 27.2677 298.388 27.2716 300.008 27.2716H300.907C300.969 27.2716 300.997 27.2716 301.034 27.243C301.118 27.1778 301.091 27.1236 301.062 27.067L301.061 27.0653C300.092 25.0939 299.122 23.1225 298.153 21.152C297.937 20.7127 298.191 20.7048 298.537 20.6941C298.566 20.6931 298.596 20.6922 298.626 20.691C299.735 20.6483 309.654 20.6531 312.522 20.6544L313.195 20.6547L313.866 20.6544C316.732 20.6531 326.655 20.6483 327.763 20.691C327.793 20.6922 327.823 20.6931 327.851 20.6941C328.198 20.7048 328.452 20.7128 328.236 21.152C327.745 22.1498 327.255 23.1472 326.764 24.1447L326.758 24.1562C326.281 25.1258 325.804 26.0955 325.327 27.0653L325.324 27.0707C325.296 27.1256 325.272 27.1741 325.35 27.243C325.381 27.2716 325.404 27.2716 325.467 27.2716H326.329C327.393 27.2703 328.393 27.2707 329.452 27.2712C330.004 27.2714 330.572 27.2716 331.173 27.2716C331.729 27.2716 332.056 27.2716 332.631 27.1486C333.342 26.997 334.163 26.0842 334.55 25.644C335.493 24.5704 336.432 23.4939 337.354 22.4005C337.954 21.6896 338.548 20.9772 339.111 20.2349C339.127 20.2133 339.143 20.1918 339.16 20.1704L339.204 20.1124C339.472 19.7608 339.736 19.4141 339.919 18.9966C340.216 18.3141 339.862 17.6461 339.564 17.0858L339.564 17.0849C339.504 16.972 339.446 16.8636 339.397 16.7603C338.481 14.8489 337.479 12.988 336.476 11.1262L336.476 11.1257L336.325 10.8446ZM297.188 69.3747C297.656 71.0342 300.573 71.6269 303.704 70.6977C306.835 69.7684 308.993 67.6696 308.525 66.0091C308.058 64.3495 305.14 63.7568 302.009 64.6861C298.879 65.6154 296.72 67.7141 297.188 69.3747ZM261.302 68.9325C262.074 68.1553 263.097 66.9718 263.764 66.1757C263.784 66.1523 263.804 66.1287 263.824 66.1047C264.075 65.8094 264.362 65.4719 264.047 65.1539C263.78 64.8841 263.483 64.7035 263.168 64.5621C261.154 63.6561 258.13 64.2977 256.345 65.3548C255.349 65.9447 254.001 67.0953 253.811 68.318C253.654 69.3238 254.189 70.0865 255.129 70.3921C256.847 70.9495 260.056 70.1863 261.302 68.9325ZM184.596 64.812C183.444 65.182 181.938 66.105 181.163 67.1083C180.825 67.5447 182.095 67.566 182.555 67.487C182.894 67.4279 188.429 66.2376 189.36 65.4086C191.08 63.8764 186.853 64.0871 184.596 64.812ZM351.702 61.6289C351.977 61.7373 352.537 61.9591 352.617 62.1723C352.748 62.5231 351.94 62.6248 351.601 62.6674L351.568 62.6716C348.212 63.0919 324.898 63.9064 313.51 64.272C313.306 64.2786 313.355 64.4165 313.389 64.5082C313.392 64.5175 313.395 64.5263 313.398 64.5345C314.335 67.379 310.413 71.1519 304.638 72.9616C299.952 74.4293 295.49 74.1509 293.473 72.4744C292.84 71.9475 292.055 71.6478 291.247 71.7499C290.271 71.8729 289.134 72.1282 287.764 72.5001C287.549 72.5583 287.322 72.6215 287.083 72.6879C283.986 73.5492 279.008 74.9336 275.171 72.7712C274.607 72.4536 273.951 72.3499 273.33 72.5194L273.319 72.5223C273.106 72.5801 272.88 72.6428 272.644 72.7085C269.779 73.5049 265.303 74.7492 261.608 73.2202C261.6 73.2168 261.59 73.2141 261.581 73.2114C261.57 73.2082 261.559 73.205 261.549 73.2008C261.441 73.1561 261.348 73.1139 261.264 73.076C260.796 72.8645 260.615 72.7828 259.742 73.1034C259.156 73.318 258.937 73.3911 258.36 73.5373C257.078 73.8618 255.65 74.0197 254.298 73.9175C252.754 73.8003 251.307 73.3436 250.063 72.2802C249.596 71.8807 249.36 71.3766 249.293 70.8197C249.264 70.5877 249.025 70.4589 248.826 70.5737C244.723 72.9475 241.097 73.4778 238.13 73.7829C238.102 73.7858 238.07 73.7891 238.034 73.7929C237.097 73.8914 233.636 74.2554 232.569 73.102C231.603 72.0574 231.987 70.7989 232.486 69.9185C233.399 68.3117 234.765 67.4095 236.652 66.4318C236.973 66.2651 237.307 66.1229 237.62 65.9895L237.712 65.9505C238.04 65.8104 237.421 65.7416 236.778 65.6701C236.681 65.6592 236.583 65.6484 236.488 65.6372C234.811 65.4406 233.59 65.3941 232.746 65.4178C231.56 65.4502 230.075 65.6362 229.191 66.0856C228.421 66.4764 227.809 66.9993 227.149 67.5635C227.062 67.6376 226.974 67.7124 226.886 67.7878C226.629 68.0057 226.18 68.3747 225.886 68.5945C220.564 72.6957 215.905 73.4071 212.246 73.7829C212.214 73.7861 212.177 73.79 212.136 73.7944C211.186 73.895 207.837 74.2496 206.684 73.102C205.677 72.0996 206.102 70.7989 206.602 69.9185C207.513 68.3117 208.879 67.4095 210.767 66.4318C211.088 66.2651 211.422 66.1229 211.735 65.9895L211.827 65.9505C212.155 65.8104 211.536 65.7416 210.893 65.67C210.796 65.6592 210.698 65.6483 210.603 65.6372C208.926 65.4406 207.705 65.3941 206.862 65.4178C205.675 65.4502 204.191 65.6362 203.306 66.0856C202.492 66.4988 201.836 67.0544 201.123 67.6595C200.631 68.0764 200.112 68.5166 199.494 68.95C194.22 72.6468 189.192 73.4913 185.648 73.855C183.291 74.0971 178.862 73.81 175.755 72.1887C174.133 71.3422 172.694 71.5553 169.21 72.5001C168.993 72.5589 168.763 72.6229 168.521 72.69C165.013 73.6659 159.099 75.3107 155.159 71.7204C154.219 70.8657 150.844 70.9596 148.908 71.2483C146.902 71.5475 144.549 72.2602 142.32 72.9353C141.1 73.3047 139.918 73.6629 138.85 73.9359C131.109 75.915 120.335 76.6957 114.653 76.9625C103.653 77.4792 76.9301 78.1412 56.835 78.1412C54.9872 78.1412 54.8783 77.2652 56.5448 76.6216C62.0442 74.4996 72.4404 71.133 78.6886 70.1669C79.8678 69.9843 79.9607 70.2492 78.4253 71.1073C77.6171 71.5587 73.2081 74.0938 80.7662 74.0889C93.7264 74.0812 102.333 73.5054 122.842 71.333C128.224 70.763 133.606 69.8342 136.382 68.3224C136.685 68.1572 137.741 67.4415 136.611 66.8367C135.466 66.2245 133.271 65.8701 129.896 65.3253C128.444 65.0909 126.774 64.8213 124.874 64.4808C119.097 63.444 113.474 62.1457 106.634 59.7839C104.657 59.1016 99.3324 56.121 106.415 53.0189C111.777 50.6707 122.142 49.0465 132.586 48.1913C140.92 47.5095 152.722 46.7153 166.017 47.4145C167.037 47.4678 168.139 47.5714 166.416 48.3332C164.629 49.1235 162.852 49.5862 160.48 50.2037C159.111 50.5601 157.544 50.9682 155.663 51.5206C155.444 51.585 155.281 51.3133 155.434 51.1399C156.69 49.7106 156.682 49.7109 154.523 49.7975L154.523 49.7976C147.34 50.0847 143.499 50.2896 134.106 51.3312C126.866 52.1336 123.033 53.213 120.52 53.9656C119.79 54.1845 116.177 55.3501 119.259 56.43C122.5 57.5661 127.355 58.2772 132.169 58.9825C138.439 59.9009 144.642 60.8095 147.126 62.6338C147.832 63.152 148.859 63.9708 149.349 65.2396C149.647 66.0105 149.772 66.9296 149.109 67.966C149.013 68.1153 148.908 68.2561 148.802 68.3968L148.78 68.4265C152.951 67.9045 158.405 66.9117 160.154 65.1645C161.705 63.6143 163.27 62.0565 164.846 60.4877C167.852 57.4951 170.899 54.4624 173.972 51.3651C176.767 48.5467 177.644 47.7545 180.036 47.3051C180.837 47.155 181.289 47.155 182.865 47.155C182.978 47.155 182.706 47.412 181.972 48.1049C181.142 48.8888 179.721 50.2308 177.598 52.3898C177.362 52.6301 177.14 52.8539 176.934 53.0621C175.379 54.633 174.703 55.3165 175.231 55.5307C175.857 55.785 178.778 55.8192 180.9 55.844C182.095 55.858 183.037 55.869 183.173 55.9147C183.364 55.9782 182.187 56.9995 181.507 57.3442C181.362 57.4178 180.556 57.4701 179.455 57.5417C177.539 57.6661 174.73 57.8486 172.956 58.3016C172.105 58.5191 171.616 58.9844 170.96 59.6319C170.14 60.444 168.004 62.5694 165.846 64.8672C162.065 68.8928 161.003 70.1693 162.395 70.5451C163.78 70.918 170.362 69.8231 173.46 68.8434C175.134 68.2384 176.305 67.1565 177.5 66.0536C177.884 65.6992 178.27 65.3426 178.676 64.9989C180.813 63.1902 182.787 62.5195 185.595 62.0517C187.918 61.6653 193.299 61.6619 193.809 63.9858C194.327 66.3408 191.517 67.7471 189.514 68.3679C187.205 69.0836 183.753 69.5321 181.219 69.8594C181.112 69.873 181.057 70.0042 181.123 70.0933C182.039 71.332 183.459 71.3359 184.876 71.3286C184.928 71.3284 184.983 71.3281 185.038 71.3279C187.528 71.3164 193.205 71.2904 198.396 67.197C199.586 66.2587 200.607 64.9462 201.36 63.9788C201.901 63.282 202.304 62.7642 202.531 62.6938C204.951 62.1578 210.561 62.3374 213.272 62.5311C215.682 62.7026 217.284 62.6193 219.457 61.5248L219.47 61.5182C219.958 61.272 220.55 60.9736 220.774 61.6537C220.89 62.0043 220.874 62.6149 220.738 62.9723C220.412 63.8294 217.869 65.4154 215.418 66.8139C213.551 67.8798 211.157 69.5195 210.912 70.3916C210.695 71.1674 211.952 71.3548 213.565 71.2487C216.404 71.0177 220.365 70.1931 224.128 67.3214C225.236 66.4751 226.282 65.1524 227.085 64.136C227.693 63.3665 228.162 62.7725 228.415 62.6938C230.836 62.1578 236.445 62.3374 239.156 62.5311C241.567 62.7026 243.169 62.6193 245.342 61.5248L245.355 61.518C245.844 61.2718 246.434 60.9738 246.659 61.6537C246.775 62.0043 246.758 62.6149 246.623 62.9723C246.297 63.8294 243.753 65.4154 241.303 66.8139C239.436 67.8798 237.042 69.5195 236.797 70.3916C236.579 71.1674 237.836 71.3548 239.45 71.2487C242.525 70.9984 247.247 70.4178 250.94 66.5553C251.052 66.439 251.154 66.3179 251.254 66.1998C251.365 66.0689 251.473 65.9417 251.586 65.8284C253.624 63.7931 256.616 62.4701 259.338 62.0391C260.995 61.7771 263.367 61.7563 264.983 62.4692C265.089 62.5155 265.221 62.5976 265.363 62.6858C265.655 62.8666 265.988 63.073 266.218 63.0512C266.45 63.0291 266.809 62.7889 267.066 62.6168C267.135 62.5707 267.196 62.5295 267.246 62.4987C268.426 61.7708 268.434 61.7708 270.308 61.7709H270.349C270.427 61.7709 270.518 61.7697 270.617 61.7685C271.504 61.7575 273.074 61.7381 272.476 62.4362C271.839 63.1792 270.775 64.3008 269.82 65.3085C269.253 65.9052 268.725 66.4619 268.346 66.8764C267.853 67.4163 267.367 67.9582 266.907 68.5253C266.877 68.5627 266.845 68.601 266.813 68.6401C266.34 69.2167 265.736 69.9515 266.056 70.3316C266.152 70.4333 266.298 70.5117 266.504 70.5674C267.18 70.749 269.223 70.5819 271.498 70.2487C273.122 70.0115 274.628 69.2454 275.803 68.073L276.902 66.9774C282.271 61.6257 289.208 54.7099 292.526 51.3651C295.32 48.5467 296.198 47.7545 298.59 47.3051C299.391 47.155 299.843 47.155 301.419 47.155C301.532 47.155 301.259 47.4124 300.525 48.1064C299.694 48.8906 298.274 50.2322 296.152 52.3898C295.916 52.6302 295.694 52.854 295.488 53.0622C293.933 54.633 293.257 55.3165 293.785 55.5307C294.412 55.785 297.333 55.8192 299.454 55.844C300.649 55.858 301.591 55.869 301.727 55.9147C301.918 55.9782 300.741 56.9995 300.061 57.3442C299.916 57.4178 299.11 57.4702 298.008 57.5417C296.092 57.6661 293.284 57.8485 291.51 58.3011C290.659 58.5191 290.169 58.9844 289.514 59.6319C288.693 60.444 286.558 62.5694 284.4 64.8672C280.619 68.8928 279.557 70.1693 280.949 70.5451C282.166 70.8725 287.885 70.0396 291.356 69.1679C292.086 68.9844 292.725 68.533 293.149 67.8957C294.506 65.8498 297.481 63.8381 301.244 62.659C303.175 62.0541 305.067 61.8164 306.765 61.7152C310.203 61.5109 318.976 61.5387 325.182 61.5584C328.276 61.5682 330.731 61.576 331.57 61.552C333.339 61.5011 334.799 61.4382 335.918 61.3587C336.242 61.336 336.538 61.3118 336.803 61.2851C336.904 61.2759 337.001 61.2658 337.593 61.1728L337.623 61.1683C338.002 61.1094 339.076 60.9426 338.443 60.3442C337.73 59.6721 336.481 59.0492 335.31 58.4657C334.534 58.0789 333.793 57.7094 333.266 57.3544C332.621 56.92 333.185 56.9137 333.687 56.9791C334.008 57.0208 334.601 57.1326 334.91 57.1917C335.724 57.3491 336.555 57.5278 337.382 57.7084C339.849 58.2503 342.286 58.8212 344.712 59.4726C346.421 59.9321 348.127 60.4314 349.727 60.9413C350.371 61.1457 350.998 61.3515 351.671 61.6164L351.702 61.6289Z" fill="white" style="fill:white;fill-opacity:1;"/>
</svg>
